<?xml version="1.0" encoding="utf-8"?>
<!-- Generator: Adobe Illustrator 21.0.0, SVG Export Plug-In . SVG Version: 6.00 Build 0)  -->
<svg version="1.1" id="Слой_1" xmlns="http://www.w3.org/2000/svg" xmlns:xlink="http://www.w3.org/1999/xlink" x="0px" y="0px"
	 viewBox="0 0 75 75" style="enable-background:new 0 0 75 75;" xml:space="preserve">
<style type="text/css">
	.st0{fill:#83B4D3;}
</style>
<path class="st0" d="M66.6,22.2h-0.1H41.8c13.8-6.8,14.9-11.1,14.4-13.5c-1.2-3.9-5.7-6.9-10-5.3c-5.6,2.1-7.1,10.3-8.6,16.2
	c-1.9-6-3.8-13.6-8.1-17.5c-1.3-1.1-3.1-2.2-5.8-2c-4,0.4-9.8,5.3-7.5,10.8c2.3,5.3,9.7,8.7,14.6,11.3H8.7H8.4
	c-1.6,0-2.9,1.3-2.9,2.8v11.2c0,1.6,1.3,2.8,2.9,2.8h0.3v33v2.4V75h57.8v-0.5v-2.4V39h0.1c1.6,0,2.9-1.3,2.9-2.8V25
	C69.5,23.5,68.2,22.2,66.6,22.2z M47.9,5.9c2.1-0.3,5,1.3,5.3,3.2c0.4,2.7-3.4,5.2-5.1,6.3c-2.5,1.7-4.9,2.6-7.3,4
	C41.7,15.7,43.4,6.5,47.9,5.9z M25,15.7c-2.2-1.5-6.5-4.4-6.4-7.7c0.1-3.5,5.7-6.5,8.8-3.8c3.9,3.3,5.7,11,7.1,16.3
	C31.3,19,28.2,17.8,25,15.7z M31,72.1H11.6V39H31L31,72.1L31,72.1z M31,36H8.6V25.2H31V36z M41.2,36v3v33H34V39v-3V25.2h7.2V36z
	 M63.5,72.1H44.2V39h19.4V72.1z M66.4,36H44.2V25.2h22.3V36z"/>
</svg>
