<?xml version="1.0" encoding="utf-8"?>
<!-- Generator: Adobe Illustrator 21.0.0, SVG Export Plug-In . SVG Version: 6.00 Build 0)  -->
<svg version="1.1" id="Слой_1" xmlns="http://www.w3.org/2000/svg" xmlns:xlink="http://www.w3.org/1999/xlink" x="0px" y="0px"
	 viewBox="0 0 75 75" style="enable-background:new 0 0 75 75;" xml:space="preserve">
<style type="text/css">
	.st0{fill:#83B4D3;}
</style>
<g>
	<path class="st0" d="M70.4,49.2H59.8H15.2H4.6c-2.3,0-4.1,1.9-4.1,4.3V57c0,2.4,1.9,4.3,4.1,4.3h0.9v1.1c0,5.5,4.3,10.1,9.6,10.1
		h44.6c5.3,0,9.6-4.5,9.6-10.1v-1.1h0.9c2.3,0,4.1-1.9,4.1-4.3v-3.5C74.5,51.2,72.7,49.2,70.4,49.2z M66.6,62.4c0,3.9-3,7-6.7,7
		H15.2c-3.7,0-6.7-3.2-6.7-7v-1.1h58.1L66.6,62.4L66.6,62.4z M71.6,57c0,0.7-0.6,1.3-1.2,1.3h-1h-2.9h-58H5.6h-1
		c-0.7,0-1.2-0.6-1.2-1.3v-3.5c0-0.7,0.6-1.3,1.2-1.3h3.7h6.9h44.6h6.9h3.7c0.7,0,1.2,0.6,1.2,1.3C71.6,53.5,71.6,57,71.6,57z"/>
	<polygon class="st0" points="16.2,40.9 21.5,45 26.8,40.9 32.2,45 37.5,40.9 42.8,45 48.1,40.9 53.5,45 58.8,40.9 64.1,45 
		70.3,40.3 68.6,37.8 64.1,41.2 58.8,37.2 53.5,41.2 48.1,37.2 42.8,41.2 37.5,37.2 32.2,41.2 26.8,37.2 21.5,41.2 16.2,37.2 
		10.9,41.2 6.4,37.8 4.7,40.3 10.9,45 	"/>
	<path class="st0" d="M8.5,34.1h57.9h2.9c0-0.6,0.1-1.2,0.1-1.9c0-0.4,0-0.8,0-1.2C68.8,15.2,54.7,2.5,37.5,2.5
		C20.3,2.5,6.2,15.2,5.6,31c0,0.4,0,0.8,0,1.2c0,0.6,0,1.3,0.1,1.9H8.5z M37.5,5.6c15.6,0,28.4,11.3,29,25.5h-58
		C9.2,16.9,21.9,5.6,37.5,5.6z"/>
	<ellipse class="st0" cx="37.5" cy="17.8" rx="1.9" ry="2"/>
	<ellipse class="st0" cx="29.7" cy="12.8" rx="1.9" ry="2"/>
	<ellipse class="st0" cx="45.3" cy="12.8" rx="1.9" ry="2"/>
</g>
</svg>
