<?xml version="1.0" encoding="utf-8"?>
<!-- Generator: Adobe Illustrator 21.0.0, SVG Export Plug-In . SVG Version: 6.00 Build 0)  -->
<svg version="1.1" id="Layer_1" xmlns="http://www.w3.org/2000/svg" xmlns:xlink="http://www.w3.org/1999/xlink" x="0px" y="0px"
	 viewBox="0 0 22 22" style="enable-background:new 0 0 22 22;" xml:space="preserve">
<style type="text/css">
	.st0{fill:#FFFFFF;}
</style>
<g id="W6EeEF_1_">
	<g>
		<path class="st0" d="M13.5,3.6c1.7-0.5,3,0.3,3.6,1.2c0.7-0.2,1.3-0.5,2-0.7c0,0.9-0.5,1.5-0.9,1.8c0.7,0.2,1.3-0.5,1.3-0.5
			c-0.2,1-1,1.8-1.6,2c-0.2,6.8-3.2,11.2-10.1,11.1c-0.5,0,0.1,0-0.4,0c-0.4,0-4.2-0.5-4.9-1.9c2.3,0.2,3.9-0.4,4.7-1.2
			c-1-0.3-2.7-0.5-3-2.9c0.3,0.1,0.6,0.2,1.2,0.1C4.2,11.8,2.9,11,3,8.8C3.2,9.2,4,9.4,4.3,9.3c-0.7-0.2-2-3.4-0.9-5
			C5.2,6.2,7.1,8,10.6,8.1C10.8,5.8,11.7,4.3,13.5,3.6z"/>
	</g>
</g>
</svg>
