<?xml version="1.0" encoding="utf-8"?>
<!-- Generator: Adobe Illustrator 21.0.0, SVG Export Plug-In . SVG Version: 6.00 Build 0)  -->
<svg version="1.1" id="Слой_1" xmlns="http://www.w3.org/2000/svg" xmlns:xlink="http://www.w3.org/1999/xlink" x="0px" y="0px"
	 viewBox="0 0 75 75" style="enable-background:new 0 0 75 75;" xml:space="preserve">
<style type="text/css">
	.st0{fill:#83B4D3;}
</style>
<g>
	<path class="st0" d="M29.7,66.5h16V42.7h-16C29.7,42.7,29.7,66.5,29.7,66.5z M32.6,45.6h10.1v18H32.6V45.6z"/>
	<path class="st0" d="M72.8,40.8l2.1-2.1l-9.9-9.9V1.5H51.1v13.6L37.5,1.5L0.2,38.7l2.1,2.1l7.8-7.8v37.6H6.1v2.9H70v-2.9h-5.1V33
		L72.8,40.8z M62,70.6H13V30L37.5,5.6L62,30V70.6z M62,25.9L54.1,18V4.4H62V25.9z"/>
	<path class="st0" d="M29.9,28.6c0,4.3,3.5,7.7,7.7,7.7c4.3,0,7.8-3.5,7.8-7.7c0-4.3-3.5-7.7-7.8-7.7C33.4,20.9,29.9,24.3,29.9,28.6
		z M37.7,23.6c2.7,0,5,2.2,5,4.9c0,2.7-2.2,4.9-5,4.9c-2.7,0-5-2.2-5-4.9C32.7,25.8,34.9,23.6,37.7,23.6z"/>
	<rect x="17.1" y="42.7" class="st0" width="3" height="3.9"/>
	<rect x="23" y="42.7" class="st0" width="3" height="3.9"/>
	<rect x="17.1" y="48.7" class="st0" width="3" height="3.9"/>
	<rect x="23" y="48.7" class="st0" width="3" height="3.9"/>
	<rect x="49" y="42.7" class="st0" width="3" height="3.9"/>
	<rect x="54.9" y="42.7" class="st0" width="3" height="3.9"/>
	<rect x="49" y="48.7" class="st0" width="3" height="3.9"/>
	<rect x="54.9" y="48.7" class="st0" width="3" height="3.9"/>
</g>
</svg>
