<?xml version="1.0" encoding="utf-8"?>
<!-- Generator: Adobe Illustrator 21.0.0, SVG Export Plug-In . SVG Version: 6.00 Build 0)  -->
<svg version="1.1" id="Слой_1" xmlns="http://www.w3.org/2000/svg" xmlns:xlink="http://www.w3.org/1999/xlink" x="0px" y="0px"
	 viewBox="0 0 110 17" style="enable-background:new 0 0 110 17;" xml:space="preserve">
<style type="text/css">
	.st0{fill:#83B4D3;}
</style>
<g>
	<polygon class="st0" points="9,0 11.1,6.5 18,6.5 12.4,10.5 14.6,17 9,13 3.4,17 5.6,10.5 0,6.5 6.9,6.5 	"/>
	<polygon class="st0" points="32,0 34.1,6.5 41,6.5 35.4,10.5 37.6,17 32,13 26.4,17 28.6,10.5 23,6.5 29.9,6.5 	"/>
	<polygon class="st0" points="55,0 57.1,6.5 64,6.5 58.4,10.5 60.6,17 55,13 49.4,17 51.6,10.5 46,6.5 52.9,6.5 	"/>
	<polygon class="st0" points="78,0 80.1,6.5 87,6.5 81.4,10.5 83.6,17 78,13 72.4,17 74.6,10.5 69,6.5 75.9,6.5 	"/>
	<polygon class="st0" points="101,0 103.1,6.5 110,6.5 104.4,10.5 106.6,17 101,13 95.4,17 97.6,10.5 92,6.5 98.9,6.5 	"/>
</g>
</svg>
