<?xml version="1.0" encoding="utf-8"?>
<!-- Generator: Adobe Illustrator 21.0.0, SVG Export Plug-In . SVG Version: 6.00 Build 0)  -->
<svg version="1.1" id="Слой_1" xmlns="http://www.w3.org/2000/svg" xmlns:xlink="http://www.w3.org/1999/xlink" x="0px" y="0px"
	 viewBox="0 0 75 75" style="enable-background:new 0 0 75 75;" xml:space="preserve">
<style type="text/css">
	.st0{fill:#81B3D2;}
</style>
<path class="st0" d="M62.3,24.3H41.2c11.8-5.9,12.7-9.6,12.3-11.7c-1-3.4-4.9-6-8.5-4.6c-4.8,1.8-6.1,8.9-7.4,14
	c-1.6-5.2-3.2-11.8-6.9-15.1c-1.1-1-2.6-1.9-4.9-1.7c-3.4,0.3-8.4,4.6-6.4,9.4c1.9,4.6,8.3,7.5,12.4,9.8H12.7
	c-1.4,0-2.5,1.1-2.5,2.4v9.7c0,1.4,1.1,2.4,2.5,2.4h0.2v31.1h49.4V38.8h0.1c1.4,0,2.5-1.1,2.5-2.4v-9.7
	C64.8,25.4,63.7,24.3,62.3,24.3z M46.4,10.1c1.8-0.3,4.3,1.1,4.5,2.7c0.3,2.4-2.9,4.5-4.3,5.5c-2.2,1.5-4.2,2.3-6.2,3.5
	C41.1,18.7,42.5,10.7,46.4,10.1z M26.9,18.7c-1.9-1.3-5.6-3.8-5.5-6.6c0.1-3.1,4.9-5.6,7.5-3.3c3.3,2.9,4.9,9.5,6.1,14.1
	C32.2,21.5,29.6,20.5,26.9,18.7z M32,67.4H15.4V38.8H32L32,67.4L32,67.4z M32,36.2H12.8v-9.4H32C32,26.9,32,36.2,32,36.2z
	 M40.6,36.2v31.1h-6.1V26.9h6.1V36.2z M59.7,67.4H43.2V38.8h16.5C59.7,38.8,59.7,67.4,59.7,67.4z M62.2,36.2h-19v-9.4h19
	C62.2,26.9,62.2,36.2,62.2,36.2z"/>
</svg>
